<svg width="25" height="24" viewBox="0 0 25 24" fill="none" xmlns="http://www.w3.org/2000/svg">
<path d="M15.5334 23.2H21.9334C22.3578 23.2 22.7647 23.0315 23.0648 22.7314C23.3649 22.4314 23.5334 22.0244 23.5334 21.6V2.40005C23.5334 1.9757 23.3649 1.56874 23.0648 1.26868C22.7647 0.96862 22.3578 0.800049 21.9334 0.800049H15.5334C15.1091 0.800049 14.7021 0.96862 14.4021 1.26868C14.102 1.56874 13.9334 1.9757 13.9334 2.40005V21.6C13.9334 22.0244 14.102 22.4314 14.4021 22.7314C14.7021 23.0315 15.1091 23.2 15.5334 23.2ZM15.5334 23.2H6.73342M10.7334 18.4V23.2M13.9334 8.80005H23.5334M16.3334 18.4H21.1334M2.73342 5.60005H13.9334V18.4H2.73342C2.30908 18.4 1.90211 18.2315 1.60205 17.9314C1.30199 17.6314 1.13342 17.2244 1.13342 16.8V7.20005C1.13342 6.7757 1.30199 6.36874 1.60205 6.06868C1.90211 5.76862 2.30908 5.60005 2.73342 5.60005Z" stroke="black" stroke-width="1.6"/>
</svg>
