<svg width="19" height="19" viewBox="0 0 19 19" fill="none" xmlns="http://www.w3.org/2000/svg">
<path d="M16.8541 8.03113H16.25V8H9.5V11H13.7386C13.1203 12.7464 11.4586 14 9.5 14C7.01488 14 5 11.9851 5 9.5C5 7.01488 7.01488 5 9.5 5C10.6471 5 11.6908 5.43275 12.4854 6.13962L14.6068 4.01825C13.2673 2.76987 11.4755 2 9.5 2C5.35812 2 2 5.35812 2 9.5C2 13.6419 5.35812 17 9.5 17C13.6419 17 17 13.6419 17 9.5C17 8.99713 16.9483 8.50625 16.8541 8.03113Z" fill="#FFC107"/>
<path d="M2.86475 6.00912L5.32887 7.81625C5.99562 6.1655 7.61037 5 9.5 5C10.6471 5 11.6907 5.43275 12.4854 6.13962L14.6067 4.01825C13.2672 2.76987 11.4755 2 9.5 2C6.61925 2 4.121 3.62637 2.86475 6.00912Z" fill="#FF3D00"/>
<path d="M9.5 17C11.4372 17 13.1975 16.2586 14.5284 15.053L12.2071 13.0888C11.429 13.6809 10.4778 14.0011 9.5 14C7.54925 14 5.89287 12.7561 5.26887 11.0203L2.82312 12.9046C4.06437 15.3335 6.58512 17 9.5 17Z" fill="#4CAF50"/>
<path d="M16.8541 8.03113H16.25V8H9.5V11H13.7386C13.4428 11.8312 12.91 12.5574 12.206 13.0891L12.2071 13.0884L14.5284 15.0526C14.3641 15.2019 17 13.25 17 9.5C17 8.99713 16.9483 8.50625 16.8541 8.03113Z" fill="#1976D2"/>
</svg>
