<svg width="25" height="24" viewBox="0 0 25 24" fill="none" xmlns="http://www.w3.org/2000/svg">
<path d="M12.1716 2H10.6706C7.38963 2 5.74963 2 4.58663 2.814C4.15631 3.11498 3.78199 3.48896 3.48063 3.919C2.66663 5.08 2.66663 6.72 2.66663 10C2.66663 13.28 2.66663 14.919 3.48063 16.081C3.78199 16.511 4.15631 16.885 4.58663 17.186C5.74963 18 7.38963 18 10.6706 18H14.6726C17.9526 18 19.5936 18 20.7566 17.186C21.1866 16.8849 21.5606 16.511 21.8616 16.081C22.4916 15.184 22.6336 14.001 22.6666 12M14.6666 6H18.6666M18.6666 6H22.6666M18.6666 6V2M18.6666 6V10M11.6666 15H13.6666M12.6666 18V22M8.66663 22H16.6666" stroke="black" stroke-width="1.5" stroke-linecap="round" stroke-linejoin="round"/>
</svg>
